<svg width="35" height="47" viewBox="0 0 35 47" fill="none" xmlns="http://www.w3.org/2000/svg">
<g id="drops 1" clip-path="url(#clip0_3952_528)">
<path id="Vector" d="M1.25579 17.7155V17.7107C1.25579 16.8254 1.71189 15.5662 2.7795 13.7737L2.77952 13.7737L2.78306 13.7677C3.6818 12.2289 4.70642 10.7673 5.84641 9.39764C6.03992 9.17178 6.28098 8.87521 6.54257 8.55338C6.64152 8.43165 6.74341 8.3063 6.84677 8.1798C6.8621 8.16104 6.8772 8.14265 6.89208 8.12463L7.88343 9.27224L7.88821 9.27777L7.89308 9.28321C9.11481 10.6475 10.1786 12.1453 11.0644 13.7483L11.0789 13.7745L11.0952 13.7996C11.8691 14.9858 12.3417 16.3427 12.4722 17.7527C12.4833 18.4802 12.3481 19.2027 12.0745 19.8771C11.7974 20.5601 11.3841 21.1795 10.8599 21.6976L10.8495 21.7079L10.8395 21.7185C10.3378 22.2509 9.7301 22.6723 9.05554 22.9555C8.38099 23.2386 7.65458 23.3773 6.92315 23.3625L6.91055 23.3623L6.89795 23.3624C6.15773 23.3702 5.42362 23.2277 4.7401 22.9435C4.05658 22.6593 3.43788 22.2392 2.92148 21.7088L2.91543 21.7026L2.90926 21.6965C2.38165 21.1771 1.96349 20.5572 1.6795 19.8734C1.3955 19.1896 1.25142 18.4559 1.25579 17.7155ZM14.7144 35.6229L14.7156 35.547C14.7831 34.1803 15.1081 32.8384 15.6737 31.5918L15.6792 31.5795L15.6844 31.5671C16.3321 30.0052 17.1682 28.5282 18.1741 27.169L18.1758 27.1667C19.8604 24.8733 21.713 22.7082 23.7181 20.6891C23.9138 20.5273 24.105 20.3603 24.2916 20.1883L24.791 20.6693C26.8218 22.676 28.6964 24.8349 30.3984 27.1271L30.3983 27.1271L30.4042 27.1349C31.451 28.5103 32.3167 30.0146 32.9801 31.6107L32.9862 31.6254L32.9928 31.6398C33.5724 32.8943 33.8985 34.2509 33.9524 35.6316C33.9721 36.9015 33.7368 38.1624 33.2604 39.3397C32.7829 40.5197 32.073 41.5917 31.1728 42.4918C30.2727 43.392 29.2007 44.1019 28.0207 44.5794C26.8406 45.0569 25.5766 45.2922 24.3038 45.2713L24.2937 45.2711L24.2836 45.2712C23.0173 45.2817 21.7617 45.0388 20.5908 44.5566C19.4199 44.0745 18.3573 43.3629 17.4655 42.4638C16.5738 41.5647 15.871 40.4963 15.3985 39.3214C14.926 38.1466 14.6934 36.889 14.7144 35.6229ZM21.2678 6.07747V5.85043C21.2678 5.12456 21.5501 4.19243 22.2284 3.0348C22.8024 2.05509 23.6366 0.953639 24.7476 -0.267102L25.2222 0.266173C26.0306 1.19776 26.7325 2.21676 27.3148 3.3042L27.3292 3.33114L27.3456 3.35692C27.8314 4.12122 28.1277 4.99031 28.2102 5.89191C28.2137 6.3246 28.1291 6.75359 27.9614 7.15269C27.7901 7.56027 27.5358 7.92774 27.2148 8.23173L27.2147 8.23165L27.2052 8.24096C26.8834 8.55581 26.5025 8.80397 26.0844 8.97116C25.6664 9.13836 25.2194 9.2213 24.7692 9.21523L24.7458 9.21492L24.7224 9.21594C24.2717 9.23565 23.8217 9.16313 23.4 9.00282C22.9783 8.84251 22.5937 8.59779 22.2699 8.28365C21.9461 7.96951 21.6898 7.59257 21.5168 7.17591C21.3715 6.82615 21.2875 6.4546 21.2678 6.07747Z" stroke="#1C1B57" stroke-width="1.63636"/>
</g>
<defs>
<clipPath id="clip0_3952_528">
<rect width="34.3303" height="47.5708" fill="white" transform="translate(0.4375 -1.48145)"/>
</clipPath>
</defs>
</svg>
