<svg width="65" height="65" viewBox="0 0 65 65" fill="none" xmlns="http://www.w3.org/2000/svg">
<rect x="0.5" y="0.5" width="64" height="64" rx="6" fill="#FF5C00" fill-opacity="0.1"/>
<g clip-path="url(#clip0_3952_508)">
<path d="M49.1148 30.2878H39.1621V29.0964C39.1621 28.5918 38.9616 28.1079 38.6048 27.7511C38.248 27.3942 37.764 27.1938 37.2594 27.1938C36.7548 27.1938 36.2709 27.3942 35.9141 27.7511C35.5572 28.1079 35.3568 28.5918 35.3568 29.0964V30.2873H25.4041C25.061 30.2877 24.7302 30.4152 24.4755 30.6451C24.2208 30.8749 24.0602 31.191 24.0247 31.5322C24.02 31.5792 24.0177 31.6264 24.0177 31.6737V40.7318C24.0182 41.0993 24.1644 41.4517 24.4243 41.7116C24.6842 41.9715 25.0365 42.1177 25.4041 42.1182H27.0827V45.8944H19.8451V27.5849L31.9513 19.5325L44.0575 27.5849V29.0475C44.0575 29.184 44.1117 29.3149 44.2082 29.4114C44.3047 29.5078 44.4356 29.5621 44.572 29.5621C44.7085 29.5621 44.8394 29.5078 44.9359 29.4114C45.0323 29.3149 45.0866 29.184 45.0866 29.0475V28.27L46.6464 29.3077C46.8382 29.4353 47.0532 29.5238 47.2792 29.5683C47.5052 29.6128 47.7377 29.6123 47.9635 29.5669C48.1893 29.5215 48.404 29.4321 48.5952 29.3037C48.7864 29.1753 48.9505 29.0106 49.0781 28.8188C49.2057 28.627 49.2942 28.412 49.3387 28.186C49.3832 27.96 49.3827 27.7275 49.3373 27.5017C49.2919 27.2759 49.2024 27.0612 49.0741 26.87C48.9457 26.6787 48.781 26.5147 48.5892 26.3871L32.4484 15.651C32.3009 15.5525 32.1275 15.5 31.9502 15.5C31.7728 15.5 31.5995 15.5525 31.452 15.651L22.0877 21.8787C22.0304 21.9157 21.9811 21.9636 21.9425 22.0198C21.9039 22.076 21.8769 22.1393 21.863 22.2061C21.8491 22.2728 21.8486 22.3416 21.8615 22.4086C21.8744 22.4755 21.9005 22.5392 21.9383 22.5959C21.976 22.6527 22.0247 22.7014 22.0814 22.7392C22.1381 22.777 22.2018 22.8031 22.2687 22.8161C22.3356 22.8291 22.4045 22.8286 22.4712 22.8148C22.5379 22.8009 22.6013 22.774 22.6575 22.7354L31.9502 16.5572L48.0171 27.2438C48.1166 27.31 48.1982 27.3997 48.2547 27.505C48.3112 27.6103 48.3407 27.7279 48.3407 27.8474C48.3407 27.9669 48.3112 28.0845 48.2547 28.1898C48.1982 28.2951 48.1166 28.3848 48.0171 28.451C47.8983 28.5303 47.7586 28.5726 47.6158 28.5726C47.4729 28.5726 47.3333 28.5303 47.2144 28.451L32.4484 18.6281C32.3009 18.5296 32.1275 18.4771 31.9502 18.4771C31.7728 18.4771 31.5995 18.5296 31.452 18.6281L16.6841 28.4504C16.5653 28.5297 16.4257 28.572 16.2828 28.572C16.14 28.572 16.0003 28.5297 15.8815 28.4504C15.7821 28.3842 15.7006 28.2946 15.6442 28.1893C15.5878 28.0841 15.5583 27.9665 15.5583 27.8471C15.5583 27.7277 15.5878 27.6102 15.6442 27.5049C15.7006 27.3997 15.7821 27.31 15.8815 27.2438L19.9941 24.5083C20.0514 24.4713 20.1008 24.4234 20.1394 24.3672C20.1779 24.311 20.205 24.2477 20.2189 24.1809C20.2328 24.1142 20.2333 24.0454 20.2203 23.9784C20.2074 23.9115 20.1813 23.8478 20.1436 23.7911C20.1058 23.7343 20.0572 23.6856 20.0005 23.6478C19.9437 23.61 19.88 23.5839 19.8131 23.5709C19.7462 23.5579 19.6774 23.5584 19.6106 23.5722C19.5439 23.586 19.4806 23.613 19.4243 23.6516L15.3117 26.3871C15.115 26.5124 14.9452 26.6758 14.8123 26.8675C14.6794 27.0593 14.5862 27.2756 14.5379 27.5038C14.4897 27.7321 14.4874 27.9677 14.5314 28.1968C14.5753 28.4259 14.6644 28.644 14.7936 28.8382C14.9228 29.0325 15.0895 29.199 15.2838 29.328C15.4782 29.4571 15.6963 29.5461 15.9255 29.5898C16.1546 29.6335 16.3902 29.6311 16.6184 29.5826C16.8466 29.5342 17.0629 29.4407 17.2545 29.3077L18.8144 28.27V45.8949H16.8436C16.4318 45.8949 16.0368 46.0586 15.7456 46.3498C15.4544 46.641 15.2908 47.036 15.2908 47.4478C15.2908 47.8596 15.4544 48.2546 15.7456 48.5458C16.0368 48.837 16.4318 49.0007 16.8436 49.0007H47.0567C47.4686 49.0007 47.8635 48.837 48.1548 48.5458C48.446 48.2546 48.6096 47.8596 48.6096 47.4478C48.6096 47.036 48.446 46.641 48.1548 46.3498C47.8635 46.0586 47.4686 45.8949 47.0567 45.8949H45.0871V43.3585C45.0871 43.222 45.0329 43.0911 44.9364 42.9946C44.8399 42.8982 44.7091 42.844 44.5726 42.844C44.4362 42.844 44.3053 42.8982 44.2088 42.9946C44.1123 43.0911 44.0581 43.222 44.0581 43.3585V45.8949H39.1609V42.1182H49.1136C49.4812 42.1177 49.8335 41.9715 50.0934 41.7116C50.3533 41.4517 50.4995 41.0993 50.5 40.7318V31.6742C50.4995 31.3069 50.3535 30.9547 50.0938 30.6948C49.8342 30.435 49.4821 30.2886 49.1148 30.2878ZM36.3846 29.0964C36.3846 28.8649 36.4766 28.6428 36.6404 28.4791C36.8041 28.3154 37.0261 28.2234 37.2577 28.2234C37.4892 28.2234 37.7113 28.3154 37.875 28.4791C38.0387 28.6428 38.1307 28.8649 38.1307 29.0964V30.2873H36.3846V29.0964ZM35.3556 47.971H16.8436C16.7047 47.971 16.5715 47.9159 16.4732 47.8176C16.375 47.7194 16.3198 47.5861 16.3198 47.4472C16.3198 47.3083 16.375 47.1751 16.4732 47.0768C16.5715 46.9786 16.7047 46.9234 16.8436 46.9234H35.3556V47.971ZM35.3556 45.8949H28.1094V42.1182H35.3556V45.8949ZM38.1319 47.971H36.3858V42.1182H38.1319V47.971ZM47.0567 46.9234C47.1956 46.9234 47.3289 46.9786 47.4271 47.0768C47.5254 47.1751 47.5805 47.3083 47.5805 47.4472C47.5805 47.5861 47.5254 47.7194 47.4271 47.8176C47.3289 47.9159 47.1956 47.971 47.0567 47.971H39.1609V46.9234H47.0567ZM49.1148 41.0891H25.4018C25.307 41.089 25.2162 41.0513 25.1492 40.9843C25.0823 40.9173 25.0446 40.8265 25.0444 40.7318V31.6742C25.0446 31.5795 25.0823 31.4887 25.1492 31.4217C25.2162 31.3547 25.307 31.317 25.4018 31.3169H49.1148C49.2095 31.317 49.3003 31.3547 49.3673 31.4217C49.4343 31.4887 49.472 31.5795 49.4721 31.6742V40.7318C49.472 40.8265 49.4343 40.9173 49.3673 40.9843C49.3003 41.0513 49.2095 41.089 49.1148 41.0891Z" fill="#FF5C00"/>
<path d="M31.9528 21.7979C31.3117 21.7979 30.6849 21.988 30.1517 22.3442C29.6186 22.7004 29.2031 23.2068 28.9577 23.7991C28.7123 24.3915 28.6481 25.0433 28.7732 25.6722C28.8983 26.3011 29.2071 26.8787 29.6605 27.3321C30.1139 27.7855 30.6915 28.0943 31.3204 28.2194C31.9492 28.3445 32.6011 28.2803 33.1935 28.0349C33.7858 27.7895 34.2922 27.374 34.6484 26.8409C35.0046 26.3077 35.1947 25.6809 35.1947 25.0398C35.1938 24.1802 34.852 23.3562 34.2442 22.7484C33.6364 22.1406 32.8124 21.7988 31.9528 21.7979ZM31.4383 27.1915C31.0409 27.0956 30.6776 26.8919 30.3886 26.6027C30.0996 26.3134 29.8961 25.95 29.8005 25.5525H31.4383V27.1915ZM31.4383 24.5229H29.8017C29.8978 24.1263 30.1014 23.7638 30.3901 23.4753C30.6789 23.1869 31.0416 22.9837 31.4383 22.888V24.5229ZM32.4674 22.888C32.8641 22.9837 33.2268 23.1869 33.5156 23.4753C33.8043 23.7638 34.0079 24.1263 34.104 24.5229H32.4674V22.888ZM32.4674 27.1915V25.5525H34.1046C34.0091 25.95 33.8056 26.3133 33.5167 26.6025C33.2278 26.8917 32.8647 27.0955 32.4674 27.1915Z" fill="#FF5C00"/>
<path d="M47.6369 32.875H27.0156V39.3105H47.6369V32.875Z" stroke="#FF5C00"/>
</g>
<defs>
<clipPath id="clip0_3952_508">
<rect width="36" height="33.5007" fill="white" transform="translate(14.5 15.5)"/>
</clipPath>
</defs>
</svg>
