<svg width="128" height="39" viewBox="0 0 128 39" fill="none" xmlns="http://www.w3.org/2000/svg">
<rect x="0.164062" width="127.839" height="38.5057" rx="4.62069" fill="#001011"/>
<path d="M54.7687 21.2711C52.9963 21.2711 51.5517 22.6185 51.5517 24.476C51.5517 26.3215 52.9963 27.681 54.7687 27.681C56.5411 27.681 57.9857 26.3215 57.9857 24.476C57.9857 22.6185 56.5411 21.2711 54.7687 21.2711ZM54.7687 26.4187C53.7974 26.4187 52.9594 25.6177 52.9594 24.476C52.9594 23.3223 53.7974 22.5333 54.7687 22.5333C55.7401 22.5333 56.5773 23.3223 56.5773 24.476C56.5773 25.6169 55.7401 26.4187 54.7687 26.4187ZM47.75 21.2711C45.9776 21.2711 44.533 22.6185 44.533 24.476C44.533 26.3215 45.9776 27.681 47.75 27.681C49.5224 27.681 50.967 26.3215 50.967 24.476C50.9677 22.6185 49.5224 21.2711 47.75 21.2711ZM47.75 26.4187C46.7786 26.4187 45.9414 25.6177 45.9414 24.476C45.9414 23.3223 46.7794 22.5333 47.75 22.5333C48.7213 22.5333 49.5586 23.3223 49.5586 24.476C49.5593 25.6169 48.7213 26.4187 47.75 26.4187ZM39.402 22.2545V23.614H42.6559C42.5587 24.3788 42.304 24.9372 41.9151 25.3261C41.4419 25.7993 40.7011 26.3215 39.402 26.3215C37.399 26.3215 35.8331 24.7066 35.8331 22.7037C35.8331 20.7007 37.399 19.0858 39.402 19.0858C40.4826 19.0858 41.2716 19.5108 41.8541 20.0571L42.8134 19.0978C42.0003 18.3209 40.9197 17.7256 39.402 17.7256C36.6582 17.7256 34.3516 19.9592 34.3516 22.7029C34.3516 25.4466 36.6582 27.6802 39.402 27.6802C40.8827 27.6802 42.0003 27.1949 42.8744 26.2839C43.7727 25.3856 44.0522 24.1226 44.0522 23.103C44.0522 22.7873 44.0281 22.4957 43.9791 22.253H39.402V22.2545ZM73.5446 23.3103C73.2779 22.5936 72.464 21.2704 70.8009 21.2704C69.1498 21.2704 67.7783 22.5695 67.7783 24.4753C67.7783 26.2718 69.1378 27.6802 70.9591 27.6802C72.4278 27.6802 73.2779 26.782 73.6298 26.2597L72.5371 25.531C72.1731 26.0653 71.675 26.4172 70.9591 26.4172C70.2425 26.4172 69.7331 26.0894 69.4053 25.4459L73.6908 23.6735L73.5446 23.3103ZM69.1739 24.3788C69.1378 23.1407 70.1332 22.5092 70.8491 22.5092C71.4075 22.5092 71.8807 22.7881 72.039 23.189L69.1739 24.3788ZM65.6894 27.4865H67.0979V18.0662H65.6894V27.4865ZM63.3828 21.987H63.3345C63.0188 21.611 62.4122 21.2704 61.6473 21.2704C60.0445 21.2704 58.5758 22.6788 58.5758 24.4873C58.5758 26.2839 60.0445 27.6802 61.6473 27.6802C62.4122 27.6802 63.0188 27.3404 63.3345 26.9515H63.3828V27.4127C63.3828 28.6388 62.7272 29.2944 61.6707 29.2944C60.8086 29.2944 60.2743 28.6749 60.0558 28.1535L58.8297 28.6636C59.1816 29.5136 60.1168 30.5573 61.6707 30.5573C63.3217 30.5573 64.7181 29.586 64.7181 27.219V21.4648H63.3828V21.987ZM61.7686 26.4187C60.7973 26.4187 59.9842 25.6056 59.9842 24.4881C59.9842 23.3593 60.7973 22.5333 61.7686 22.5333C62.7279 22.5333 63.48 23.3585 63.48 24.4881C63.48 25.6049 62.7279 26.4187 61.7686 26.4187ZM80.1414 18.0662H76.7722V27.4865H78.1776V23.9177H80.1406C81.699 23.9177 83.231 22.7896 83.231 20.9923C83.231 19.195 81.6997 18.0662 80.1414 18.0662ZM80.1775 22.6064H78.1776V19.3774H80.1775C81.2287 19.3774 81.8256 20.2478 81.8256 20.9923C81.8256 21.7218 81.2287 22.6064 80.1775 22.6064ZM88.8677 21.2538C87.8496 21.2538 86.7954 21.7022 86.359 22.6961L87.6077 23.2176C87.8745 22.6961 88.3711 22.5266 88.8925 22.5266C89.6197 22.5266 90.359 22.9629 90.371 23.7383V23.8355C90.1163 23.6901 89.5707 23.4715 88.9046 23.4715C87.5595 23.4715 86.1895 24.2108 86.1895 25.5928C86.1895 26.8535 87.2927 27.6651 88.5286 27.6651C89.4743 27.6651 89.995 27.2409 90.3221 26.7443H90.3703V27.4715H91.7275V23.8596C91.7275 22.1867 90.4795 21.2538 88.8677 21.2538ZM88.6974 26.4165C88.2369 26.4165 87.5941 26.1859 87.5941 25.6169C87.5941 24.8898 88.3944 24.6109 89.0847 24.6109C89.7026 24.6109 89.9935 24.7443 90.3695 24.9259C90.261 25.7986 89.5097 26.4165 88.6974 26.4165ZM96.6724 21.4595L95.0605 25.5439H95.0123L93.3401 21.4595H91.8254L94.334 27.1678L92.9038 30.3433H94.3702L98.2368 21.4595H96.6724ZM84.0072 27.4865H85.4133V18.0662H84.0072V27.4865Z" fill="white"/>
<path fill-rule="evenodd" clip-rule="evenodd" d="M58.8938 13.0015C58.4492 13.4735 57.8968 13.7083 57.2359 13.7083C56.575 13.7083 56.0227 13.4727 55.5788 13.0015C55.1342 12.5303 54.9127 11.9534 54.9127 11.2715C54.9127 10.5896 55.1342 10.0127 55.5788 9.54153C56.0227 9.06958 56.575 8.83398 57.2359 8.83398C57.893 8.83398 58.4446 9.07113 58.8908 9.54464C59.3369 10.0182 59.5599 10.5935 59.5599 11.2715C59.5599 11.9542 59.3376 12.5311 58.8938 13.0015ZM56.0076 12.6112C56.3422 12.9611 56.7514 13.1353 57.2359 13.1353C57.7205 13.1353 58.1297 12.9603 58.4642 12.6112C58.7988 12.2613 58.9669 11.815 58.9669 11.2723C58.9669 10.7296 58.7988 10.2825 58.4642 9.93341C58.1304 9.58352 57.7205 9.40935 57.2359 9.40935C56.7514 9.40935 56.3422 9.5843 56.0076 9.93341C55.6738 10.2833 55.5057 10.7296 55.5057 11.2723C55.5057 11.815 55.6738 12.2613 56.0076 12.6112Z" fill="white"/>
<path d="M39.1571 11.4612C39.1571 12.1128 38.9702 12.6314 38.5957 13.0186C38.1707 13.4789 37.616 13.7091 36.9348 13.7091C36.2822 13.7091 35.7268 13.4758 35.2709 13.0093C34.8143 12.542 34.5859 11.9635 34.5859 11.2731C34.5859 10.5819 34.8143 10.0034 35.2709 9.53687C35.7268 9.06957 36.2822 8.83632 36.9348 8.83632C37.2588 8.83632 37.5686 8.90163 37.8624 9.03147C38.1571 9.1621 38.393 9.33549 38.5693 9.55242L38.1722 9.96295C37.873 9.59363 37.4608 9.40935 36.9341 9.40935C36.4578 9.40935 36.0463 9.58196 35.699 9.92719C35.3523 10.2724 35.179 10.7203 35.179 11.2723C35.179 11.8244 35.3523 12.2722 35.6997 12.6182C36.0471 12.9634 36.4586 13.136 36.9348 13.136C37.4397 13.136 37.8609 12.9627 38.1978 12.6151C38.4163 12.3888 38.5429 12.0739 38.5768 11.6704H36.9348V11.109H39.1254C39.1473 11.2311 39.1571 11.3485 39.1571 11.4612Z" fill="white"/>
<path d="M42.631 9.51277H40.5723V10.9916H42.4291V11.5522H40.5723V13.0311H42.631V13.6049H39.9913V8.93973H42.631V9.51277Z" fill="white"/>
<path d="M44.4991 13.6049H45.0801V9.51277H46.3431V8.93973H43.2361V9.51277H44.4991V13.6049Z" fill="white"/>
<path d="M48.5917 13.6049V8.93973H49.1727V13.6049H48.5917Z" fill="white"/>
<path d="M51.1674 13.6049H51.7484V9.51277H53.0114V8.93973H49.9045V9.51277H51.1674V13.6049Z" fill="white"/>
<path d="M60.3753 8.93973V13.6049H60.9548V10.6985L60.9299 9.79967H60.9548L63.2539 13.6049H63.8605V8.93973H63.2795V11.6704L63.3044 12.5692H63.2795L61.0821 8.93973H60.3753Z" fill="white"/>
<path fill-rule="evenodd" clip-rule="evenodd" d="M58.8938 13.0015C58.4492 13.4735 57.8968 13.7083 57.2359 13.7083C56.575 13.7083 56.0227 13.4727 55.5788 13.0015C55.1342 12.5303 54.9127 11.9534 54.9127 11.2715C54.9127 10.5896 55.1342 10.0127 55.5788 9.54153C56.0227 9.06958 56.575 8.83398 57.2359 8.83398C57.893 8.83398 58.4446 9.07113 58.8908 9.54464C59.3369 10.0182 59.5599 10.5935 59.5599 11.2715C59.5599 11.9542 59.3376 12.5311 58.8938 13.0015ZM56.0076 12.6112C56.3422 12.9611 56.7514 13.1353 57.2359 13.1353C57.7205 13.1353 58.1297 12.9603 58.4642 12.6112C58.7988 12.2613 58.9669 11.815 58.9669 11.2723C58.9669 10.7296 58.7988 10.2825 58.4642 9.93341C58.1304 9.58352 57.7205 9.40935 57.2359 9.40935C56.7514 9.40935 56.3422 9.5843 56.0076 9.93341C55.6738 10.2833 55.5057 10.7296 55.5057 11.2723C55.5057 11.815 55.6738 12.2613 56.0076 12.6112Z" stroke="white" stroke-width="0.150714" stroke-miterlimit="10"/>
<path d="M39.1571 11.4612C39.1571 12.1128 38.9702 12.6314 38.5957 13.0186C38.1707 13.4789 37.616 13.7091 36.9348 13.7091C36.2822 13.7091 35.7268 13.4758 35.2709 13.0093C34.8143 12.542 34.5859 11.9635 34.5859 11.2731C34.5859 10.5819 34.8143 10.0034 35.2709 9.53687C35.7268 9.06957 36.2822 8.83632 36.9348 8.83632C37.2588 8.83632 37.5686 8.90163 37.8624 9.03147C38.1571 9.1621 38.393 9.33549 38.5693 9.55242L38.1722 9.96295C37.873 9.59363 37.4608 9.40935 36.9341 9.40935C36.4578 9.40935 36.0463 9.58196 35.699 9.92719C35.3523 10.2724 35.179 10.7203 35.179 11.2723C35.179 11.8244 35.3523 12.2722 35.6997 12.6182C36.0471 12.9634 36.4586 13.136 36.9348 13.136C37.4397 13.136 37.8609 12.9627 38.1978 12.6151C38.4163 12.3888 38.5429 12.0739 38.5768 11.6704H36.9348V11.109H39.1254C39.1473 11.2311 39.1571 11.3485 39.1571 11.4612Z" stroke="white" stroke-width="0.150714" stroke-miterlimit="10"/>
<path d="M42.631 9.51277H40.5723V10.9916H42.4291V11.5522H40.5723V13.0311H42.631V13.6049H39.9913V8.93973H42.631V9.51277Z" stroke="white" stroke-width="0.150714" stroke-miterlimit="10"/>
<path d="M44.4991 13.6049H45.0801V9.51277H46.3431V8.93973H43.2361V9.51277H44.4991V13.6049Z" stroke="white" stroke-width="0.150714" stroke-miterlimit="10"/>
<path d="M48.5917 13.6049V8.93973H49.1727V13.6049H48.5917Z" stroke="white" stroke-width="0.150714" stroke-miterlimit="10"/>
<path d="M51.1674 13.6049H51.7484V9.51277H53.0114V8.93973H49.9045V9.51277H51.1674V13.6049Z" stroke="white" stroke-width="0.150714" stroke-miterlimit="10"/>
<path d="M60.3753 8.93973V13.6049H60.9548V10.6985L60.9299 9.79967H60.9548L63.2539 13.6049H63.8605V8.93973H63.2795V11.6704L63.3044 12.5692H63.2795L61.0821 8.93973H60.3753Z" stroke="white" stroke-width="0.150714" stroke-miterlimit="10"/>
<path d="M11.2864 8.76985C11.0671 9.00195 10.9375 9.36216 10.9375 9.82862V26.4945C10.9375 26.9617 11.0671 27.3212 11.2864 27.5533L11.3422 27.6075L20.6781 18.2716V18.1616V18.0515L11.3422 8.71484L11.2864 8.76985Z" fill="url(#paint0_linear_1393_271248)"/>
<path d="M23.7912 21.3857L20.6797 18.2727V18.1627V18.0527L23.7919 14.9404L23.862 14.9804L27.5492 17.0753C28.6027 17.6736 28.6027 18.6525 27.5492 19.2516L23.862 21.3465L23.7912 21.3857Z" fill="url(#paint1_linear_1393_271248)"/>
<path d="M23.856 21.3452L20.6737 18.1621L11.2812 27.5538C11.6286 27.9216 12.2014 27.9668 12.8472 27.5998L23.856 21.3452Z" fill="url(#paint2_linear_1393_271248)"/>
<path d="M23.8553 14.9786L12.8472 8.72404C12.2014 8.35705 11.6286 8.40302 11.2812 8.77L20.673 18.1617L23.8553 14.9786Z" fill="url(#paint3_linear_1393_271248)"/>
<path opacity="0.2" d="M23.786 21.2744L12.8479 27.4891C12.236 27.8365 11.6889 27.8139 11.3378 27.4974L11.2812 27.5539L11.337 27.6082C11.6882 27.9246 12.2353 27.948 12.8472 27.5999L23.8553 21.3452L23.786 21.2744Z" fill="black"/>
<path opacity="0.12" d="M11.2864 27.4435C11.0671 27.2114 10.9375 26.8512 10.9375 26.3848V26.4948C10.9375 26.9612 11.0671 27.3215 11.2864 27.5535L11.3429 27.497L11.2864 27.4435Z" fill="black"/>
<path opacity="0.12" d="M27.5464 19.1395L23.7891 21.2743L23.8591 21.3444L27.5464 19.2495C28.0731 18.9503 28.3361 18.5562 28.3361 18.1621C28.2916 18.5185 28.0234 18.8682 27.5464 19.1395Z" fill="black"/>
<path opacity="0.25" d="M12.8523 8.83443L27.5476 17.184C28.0254 17.4552 28.2929 17.8049 28.3374 18.1621C28.3374 17.768 28.0744 17.3731 27.5476 17.0739L12.8523 8.72441C11.7988 8.12607 10.9375 8.62267 10.9375 9.82914V9.93991C10.9375 8.73345 11.7996 8.23609 12.8523 8.83443Z" fill="white"/>
<defs>
<linearGradient id="paint0_linear_1393_271248" x1="19.8504" y1="9.65288" x2="7.20372" y2="22.2996" gradientUnits="userSpaceOnUse">
<stop stop-color="#00A0FF"/>
<stop offset="0.0066" stop-color="#00A1FF"/>
<stop offset="0.2601" stop-color="#00BEFF"/>
<stop offset="0.5122" stop-color="#00D2FF"/>
<stop offset="0.7604" stop-color="#00DFFF"/>
<stop offset="1" stop-color="#00E3FF"/>
</linearGradient>
<linearGradient id="paint1_linear_1393_271248" x1="28.9202" y1="18.1623" x2="10.6862" y2="18.1623" gradientUnits="userSpaceOnUse">
<stop stop-color="#FFE000"/>
<stop offset="0.4087" stop-color="#FFBD00"/>
<stop offset="0.7754" stop-color="#FFA500"/>
<stop offset="1" stop-color="#FF9C00"/>
</linearGradient>
<linearGradient id="paint2_linear_1393_271248" x1="22.1265" y1="19.8917" x2="4.9766" y2="37.0416" gradientUnits="userSpaceOnUse">
<stop stop-color="#FF3A44"/>
<stop offset="1" stop-color="#C31162"/>
</linearGradient>
<linearGradient id="paint3_linear_1393_271248" x1="8.91595" y1="3.22247" x2="16.5742" y2="10.8806" gradientUnits="userSpaceOnUse">
<stop stop-color="#32A071"/>
<stop offset="0.0685" stop-color="#2DA771"/>
<stop offset="0.4762" stop-color="#15CF74"/>
<stop offset="0.8009" stop-color="#06E775"/>
<stop offset="1" stop-color="#00F076"/>
</linearGradient>
</defs>
</svg>
