<svg width="128" height="39" viewBox="0 0 128 39" fill="none" xmlns="http://www.w3.org/2000/svg">
<rect width="127.839" height="38.5057" rx="4.62069" fill="#001011"/>
<path d="M37.9456 25.0901H33.9681L33.0129 28.0002H31.3281L35.0956 17.2334H36.846L40.6134 28.0002H38.9L37.9456 25.0901ZM34.38 23.7472H37.5329L35.9786 19.0242H35.9351L34.38 23.7472Z" fill="white"/>
<path d="M48.7524 24.0753C48.7524 26.5147 47.487 28.082 45.5775 28.082C45.0937 28.1081 44.6126 27.9931 44.1893 27.7502C43.766 27.5073 43.4175 27.1464 43.1837 26.7086H43.1476V30.5967H41.5859V20.15H43.0975V21.4556H43.1263C43.3708 21.02 43.7251 20.6608 44.1517 20.4165C44.5783 20.1721 45.0611 20.0516 45.5487 20.0679C47.4796 20.0679 48.7524 21.6427 48.7524 24.0753ZM47.1473 24.0753C47.1473 22.4861 46.3513 21.4412 45.1368 21.4412C43.9436 21.4412 43.141 22.5081 43.141 24.0753C43.141 25.657 43.9436 26.7162 45.1368 26.7162C46.3513 26.7162 47.1473 25.679 47.1473 24.0753Z" fill="white"/>
<path d="M57.1196 24.0753C57.1196 26.5147 55.8542 28.082 53.9446 28.082C53.4609 28.1081 52.9798 27.9931 52.5565 27.7502C52.1331 27.5073 51.7846 27.1463 51.5509 26.7086H51.5148V30.5967H49.9531V20.15H51.4647V21.4556H51.4934C51.7379 21.02 52.0923 20.6608 52.5189 20.4165C52.9454 20.1721 53.4282 20.0516 53.9159 20.0679C55.8468 20.0679 57.1196 21.6427 57.1196 24.0753ZM55.5145 24.0753C55.5145 22.4861 54.7185 21.4412 53.504 21.4412C52.3108 21.4412 51.5082 22.5081 51.5082 24.0753C51.5082 25.657 52.3108 26.7162 53.504 26.7162C54.7185 26.7162 55.5145 25.679 55.5145 24.0753H55.5145Z" fill="white"/>
<path d="M62.6611 25.0001C62.7768 26.0678 63.7821 26.7689 65.1558 26.7689C66.472 26.7689 67.419 26.0678 67.419 25.1051C67.419 24.2694 66.8479 23.769 65.4955 23.4261L64.1431 23.0899C62.227 22.6124 61.3374 21.6878 61.3374 20.1874C61.3374 18.3297 62.9065 17.0537 65.1344 17.0537C67.3394 17.0537 68.851 18.3297 68.9019 20.1874H67.3255C67.2311 19.1129 66.3703 18.4643 65.1123 18.4643C63.8543 18.4643 62.9934 19.1205 62.9934 20.0756C62.9934 20.8368 63.5432 21.2847 64.8882 21.6276L66.0379 21.9189C68.1789 22.4413 69.0685 23.3287 69.0685 24.9035C69.0685 26.9179 67.5134 28.1795 65.04 28.1795C62.7259 28.1795 61.1634 26.9475 61.0625 25.0001L62.6611 25.0001Z" fill="white"/>
<path d="M72.433 18.292V20.1497H73.8798V21.4257H72.433V25.7532C72.433 26.4255 72.7227 26.7388 73.3587 26.7388C73.5304 26.7357 73.7019 26.7232 73.8724 26.7015V27.9699C73.5865 28.025 73.2958 28.05 73.005 28.0444C71.4647 28.0444 70.864 27.4474 70.864 25.9251V21.4257H69.7578V20.1497H70.864V18.292H72.433Z" fill="white"/>
<path d="M74.7188 24.0756C74.7188 21.6057 76.1286 20.0537 78.327 20.0537C80.5328 20.0537 81.9361 21.6057 81.9361 24.0756C81.9361 26.5522 80.5402 28.0975 78.327 28.0975C76.1146 28.0975 74.7188 26.5522 74.7188 24.0756ZM80.3449 24.0756C80.3449 22.3813 79.5924 21.3814 78.327 21.3814C77.0616 21.3814 76.3099 22.3889 76.3099 24.0756C76.3099 25.7766 77.0616 26.769 78.327 26.769C79.5924 26.769 80.3449 25.7766 80.3449 24.0756H80.3449Z" fill="white"/>
<path d="M83.2266 20.1499H84.716V21.486H84.7521C84.8529 21.0687 85.0898 20.6999 85.4231 20.4417C85.7563 20.1834 86.1656 20.0514 86.5821 20.0678C86.7621 20.0671 86.9415 20.0873 87.1171 20.1279V21.635C86.8899 21.5634 86.6529 21.5305 86.4155 21.5377C86.1886 21.5282 85.9624 21.5694 85.7525 21.6586C85.5425 21.7479 85.3538 21.8829 85.1992 22.0545C85.0446 22.226 84.9278 22.4301 84.8569 22.6526C84.7859 22.8752 84.7625 23.1109 84.7882 23.3437V27.9998H83.2266L83.2266 20.1499Z" fill="white"/>
<path d="M94.316 25.6945C94.1059 27.1195 92.7609 28.0975 91.0401 28.0975C88.8268 28.0975 87.4531 26.5675 87.4531 24.1128C87.4531 21.6506 88.8342 20.0537 90.9744 20.0537C93.0793 20.0537 94.403 21.5456 94.403 23.9257V24.4778H89.0295V24.5751C89.0047 24.864 89.0398 25.1551 89.1324 25.4289C89.225 25.7028 89.373 25.9531 89.5665 26.1634C89.7601 26.3737 89.9948 26.5391 90.2551 26.6486C90.5154 26.7582 90.7953 26.8093 91.0762 26.7986C91.4452 26.8343 91.8155 26.7461 92.1321 26.5472C92.4487 26.3482 92.6945 26.0492 92.8331 25.6945L94.316 25.6945ZM89.0369 23.3516H92.8405C92.8545 23.0919 92.8164 22.8319 92.7284 22.5881C92.6404 22.3443 92.5046 22.1219 92.3293 21.9348C92.1541 21.7477 91.9433 21.6 91.7101 21.501C91.477 21.402 91.2265 21.3538 90.9744 21.3593C90.7201 21.3578 90.468 21.4082 90.2327 21.5077C89.9974 21.6072 89.7835 21.7537 89.6033 21.939C89.4232 22.1242 89.2804 22.3444 89.1832 22.5869C89.086 22.8293 89.0363 23.0893 89.0369 23.3517V23.3516Z" fill="white"/>
<path d="M34.1861 9.12989C34.5135 9.10565 34.842 9.15669 35.148 9.27931C35.454 9.40194 35.7297 9.5931 35.9554 9.83902C36.1811 10.0849 36.3511 10.3795 36.4531 10.7014C36.5552 11.0233 36.5867 11.3645 36.5454 11.7005C36.5454 13.3533 35.6796 14.3033 34.1861 14.3033H32.375V9.12989H34.1861ZM33.1538 13.5717H34.0991C34.3331 13.5861 34.5672 13.5465 34.7844 13.4558C35.0017 13.3651 35.1966 13.2256 35.355 13.0474C35.5134 12.8691 35.6313 12.6567 35.7001 12.4255C35.7689 12.1944 35.7868 11.9503 35.7527 11.711C35.7843 11.4728 35.7646 11.2302 35.6947 11.0007C35.6249 10.7712 35.5067 10.5606 35.3487 10.3837C35.1906 10.2069 34.9966 10.0684 34.7806 9.97799C34.5646 9.88761 34.3319 9.84766 34.0991 9.86098H33.1538V13.5717Z" fill="white"/>
<path d="M37.4225 12.3499C37.3987 12.0934 37.4272 11.8345 37.506 11.5899C37.5849 11.3454 37.7124 11.1205 37.8804 10.9298C38.0484 10.739 38.2532 10.5867 38.4817 10.4824C38.7101 10.3781 38.9571 10.3242 39.2069 10.3242C39.4567 10.3242 39.7038 10.3781 39.9322 10.4824C40.1607 10.5867 40.3655 10.739 40.5335 10.9298C40.7015 11.1205 40.829 11.3454 40.9079 11.5899C40.9867 11.8345 41.0152 12.0934 40.9914 12.3499C41.0156 12.6068 40.9875 12.866 40.9089 13.1109C40.8302 13.3559 40.7028 13.5812 40.5347 13.7723C40.3667 13.9634 40.1617 14.1161 39.933 14.2206C39.7044 14.3251 39.457 14.3791 39.2069 14.3791C38.9568 14.3791 38.7095 14.3251 38.4808 14.2206C38.2522 14.1161 38.0472 13.9634 37.8792 13.7723C37.7111 13.5812 37.5837 13.3559 37.505 13.1109C37.4264 12.866 37.3983 12.6068 37.4225 12.3499ZM40.2233 12.3499C40.2233 11.5036 39.8548 11.0087 39.2082 11.0087C38.5591 11.0087 38.1939 11.5036 38.1939 12.3499C38.1939 13.203 38.5591 13.6941 39.2082 13.6941C39.8548 13.6941 40.2233 13.1996 40.2233 12.3499H40.2233Z" fill="white"/>
<path d="M45.7361 14.3036H44.9614L44.1794 11.4282H44.1203L43.3415 14.3036H42.5743L41.5312 10.3994H42.2887L42.9665 13.3785H43.0223L43.8003 10.3994H44.5167L45.2946 13.3785H45.3537L46.0282 10.3994H46.775L45.7361 14.3036Z" fill="white"/>
<path d="M47.6563 10.3985H48.3751V11.0188H48.4309C48.5256 10.796 48.6852 10.6093 48.8876 10.4846C49.0901 10.3599 49.3251 10.3035 49.5601 10.3232C49.7442 10.3089 49.9291 10.3375 50.101 10.407C50.2729 10.4764 50.4275 10.5849 50.5533 10.7244C50.6791 10.8638 50.7728 11.0307 50.8276 11.2126C50.8824 11.3945 50.8968 11.5868 50.8698 11.7753V14.3027H50.123V11.9688C50.123 11.3414 49.8588 11.0293 49.3065 11.0293C49.1815 11.0233 49.0567 11.0453 48.9407 11.0937C48.8247 11.1421 48.7202 11.2158 48.6344 11.3098C48.5486 11.4038 48.4835 11.5158 48.4435 11.6381C48.4036 11.7605 48.3898 11.8903 48.403 12.0187V14.3027H47.6562L47.6563 10.3985Z" fill="white"/>
<path d="M52.0547 8.875H52.8015V14.3033H52.0547V8.875Z" fill="white"/>
<path d="M53.8444 12.35C53.8206 12.0934 53.8491 11.8345 53.9279 11.59C54.0068 11.3454 54.1343 11.1205 54.3024 10.9298C54.4704 10.7391 54.6752 10.5867 54.9037 10.4824C55.1321 10.3781 55.3792 10.3242 55.629 10.3242C55.8788 10.3242 56.1259 10.3781 56.3543 10.4824C56.5828 10.5867 56.7876 10.7391 56.9556 10.9298C57.1237 11.1205 57.2512 11.3454 57.3301 11.59C57.409 11.8345 57.4374 12.0934 57.4136 12.35C57.4379 12.6069 57.4097 12.8661 57.3311 13.111C57.2524 13.356 57.1249 13.5813 56.9568 13.7724C56.7888 13.9635 56.5838 14.1162 56.3551 14.2207C56.1264 14.3252 55.8791 14.3792 55.629 14.3792C55.3789 14.3792 55.1316 14.3252 54.9029 14.2207C54.6742 14.1162 54.4692 13.9635 54.3012 13.7724C54.1331 13.5813 54.0056 13.356 53.927 13.111C53.8483 12.8661 53.8201 12.6069 53.8444 12.35ZM56.6451 12.35C56.6451 11.5037 56.2767 11.0088 55.63 11.0088C54.9809 11.0088 54.6158 11.5037 54.6158 12.35C54.6158 13.2031 54.9809 13.6942 55.63 13.6942C56.2767 13.6942 56.6451 13.1997 56.6451 12.35H56.6451Z" fill="white"/>
<path d="M58.1953 13.1996C58.1953 12.4969 58.7025 12.0917 59.6027 12.0341L60.6276 11.9732V11.6362C60.6276 11.2238 60.3634 10.991 59.853 10.991C59.4361 10.991 59.1472 11.1489 59.0643 11.4249H58.3414C58.4177 10.7543 59.0291 10.3242 59.8874 10.3242C60.8361 10.3242 61.3711 10.8115 61.3711 11.6362V14.3038H60.6522V13.7551H60.5932C60.4732 13.9519 60.3048 14.1123 60.1052 14.22C59.9055 14.3277 59.6817 14.3788 59.4566 14.3681C59.2978 14.3851 59.1372 14.3676 58.9853 14.3167C58.8334 14.2659 58.6935 14.1827 58.5747 14.0726C58.4559 13.9625 58.3607 13.828 58.2954 13.6776C58.23 13.5272 58.1959 13.3644 58.1953 13.1996ZM60.6276 12.866V12.5396L59.7036 12.6006C59.1825 12.6366 58.9462 12.8195 58.9462 13.1637C58.9462 13.515 59.2416 13.7195 59.6478 13.7195C59.7669 13.7319 59.8871 13.7195 60.0014 13.6831C60.1157 13.6466 60.2217 13.5867 60.3131 13.5071C60.4045 13.4275 60.4795 13.3297 60.5335 13.2195C60.5875 13.1094 60.6195 12.9892 60.6276 12.866Z" fill="white"/>
<path d="M62.3516 12.3495C62.3516 11.1158 62.9662 10.3343 63.9222 10.3343C64.1587 10.3231 64.3934 10.3815 64.5989 10.5028C64.8044 10.6241 64.9721 10.8032 65.0826 11.0193H65.1384V8.875H65.8852V14.3033H65.1696V13.6864H65.1105C64.9915 13.901 64.8179 14.0779 64.6084 14.198C64.399 14.3181 64.1617 14.3767 63.9222 14.3676C62.9596 14.3676 62.3516 13.5861 62.3516 12.3495ZM63.123 12.3495C63.123 13.1776 63.5013 13.6759 64.134 13.6759C64.7634 13.6759 65.1524 13.1704 65.1524 12.3529C65.1524 11.5392 64.7593 11.0265 64.134 11.0265C63.5054 11.0265 63.1229 11.5282 63.1229 12.3495H63.123Z" fill="white"/>
<path d="M68.9772 12.3499C68.9534 12.0934 68.9818 11.8345 69.0607 11.5899C69.1396 11.3454 69.2671 11.1205 69.4351 10.9298C69.6031 10.739 69.8079 10.5867 70.0363 10.4824C70.2648 10.3781 70.5118 10.3242 70.7616 10.3242C71.0114 10.3242 71.2585 10.3781 71.4869 10.4824C71.7153 10.5867 71.9201 10.739 72.0881 10.9298C72.2562 11.1205 72.3837 11.3454 72.4625 11.5899C72.5414 11.8345 72.5698 12.0934 72.5461 12.3499C72.5703 12.6068 72.5422 12.866 72.4635 13.1109C72.3849 13.3559 72.2574 13.5812 72.0894 13.7723C71.9213 13.9634 71.7164 14.1161 71.4877 14.2206C71.259 14.3251 71.0117 14.3791 70.7616 14.3791C70.5115 14.3791 70.2642 14.3251 70.0355 14.2206C69.8069 14.1161 69.6019 13.9634 69.4339 13.7723C69.2658 13.5812 69.1383 13.3559 69.0597 13.1109C68.9811 12.866 68.953 12.6068 68.9772 12.3499ZM71.778 12.3499C71.778 11.5036 71.4095 11.0087 70.7629 11.0087C70.1137 11.0087 69.7486 11.5036 69.7486 12.3499C69.7486 13.203 70.1138 13.6941 70.7629 13.6941C71.4095 13.6941 71.778 13.1996 71.778 12.3499Z" fill="white"/>
<path d="M73.5547 10.3985H74.2736V11.0188H74.3294C74.424 10.796 74.5837 10.6093 74.7861 10.4846C74.9885 10.3599 75.2236 10.3035 75.4585 10.3232C75.6426 10.3089 75.8275 10.3375 75.9994 10.407C76.1714 10.4764 76.3259 10.5849 76.4517 10.7244C76.5775 10.8638 76.6713 11.0307 76.7261 11.2126C76.7808 11.3945 76.7953 11.5868 76.7682 11.7753V14.3027H76.0215V11.9688C76.0215 11.3414 75.7572 11.0293 75.205 11.0293C75.08 11.0233 74.9552 11.0453 74.8392 11.0937C74.7231 11.1421 74.6187 11.2158 74.5328 11.3098C74.447 11.4038 74.3819 11.5158 74.342 11.6381C74.302 11.7605 74.2882 11.8903 74.3015 12.0187V14.3027H73.5547V10.3985Z" fill="white"/>
<path d="M80.9811 9.42676V10.4166H81.8009V11.0656H80.9811V13.0731C80.9811 13.4821 81.1444 13.6612 81.5161 13.6612C81.6113 13.6608 81.7064 13.6549 81.8009 13.6434V14.2852C81.6668 14.3099 81.5309 14.3231 81.3947 14.3245C80.5642 14.3245 80.2335 14.0231 80.2335 13.2704V11.0655H79.6328V10.4165H80.2335V9.42676H80.9811Z" fill="white"/>
<path d="M82.8203 8.875H83.5605V11.0265H83.6196C83.7189 10.8017 83.8829 10.6139 84.0894 10.4887C84.2958 10.3636 84.5347 10.3071 84.7733 10.3271C84.9565 10.3168 85.1396 10.3484 85.3096 10.4195C85.4796 10.4906 85.6322 10.5996 85.7567 10.7386C85.8812 10.8776 85.9744 11.0433 86.0296 11.2238C86.0849 11.4042 86.1009 11.595 86.0765 11.7826V14.3033H85.329V11.9727C85.329 11.3491 85.0475 11.0333 84.5199 11.0333C84.3915 11.0224 84.2624 11.0406 84.1416 11.0866C84.0208 11.1326 83.9111 11.2053 83.8204 11.2996C83.7297 11.3938 83.66 11.5074 83.6162 11.6324C83.5725 11.7574 83.5557 11.8907 83.5671 12.0231V14.3032H82.8203L82.8203 8.875Z" fill="white"/>
<path d="M90.4349 13.2497C90.3335 13.6065 90.1136 13.9151 89.8139 14.1216C89.5142 14.3281 89.1536 14.4193 88.7953 14.3792C88.546 14.386 88.2983 14.3367 88.0693 14.2348C87.8403 14.1329 87.6356 13.9808 87.4692 13.7891C87.3029 13.5973 87.1791 13.3706 87.1062 13.1245C87.0334 12.8784 87.0133 12.6189 87.0474 12.364C87.0142 12.1083 87.0346 11.8483 87.1073 11.6015C87.18 11.3546 87.3032 11.1268 87.4686 10.9334C87.6341 10.74 87.8378 10.5855 88.0662 10.4804C88.2945 10.3753 88.542 10.3221 88.792 10.3243C89.8449 10.3243 90.48 11.0665 90.48 12.2924V12.5613H87.8081V12.6045C87.7964 12.7478 87.8139 12.892 87.8593 13.0279C87.9048 13.1638 87.9773 13.2884 88.0722 13.3937C88.1671 13.499 88.2822 13.5827 88.4103 13.6394C88.5384 13.6961 88.6765 13.7245 88.8158 13.723C88.9945 13.7451 89.1754 13.7119 89.3357 13.6276C89.496 13.5433 89.6284 13.4118 89.716 13.2496L90.4349 13.2497ZM87.8081 11.9915H89.7193C89.7287 11.8604 89.7115 11.7288 89.6686 11.6051C89.6258 11.4813 89.5584 11.3682 89.4707 11.2729C89.383 11.1777 89.2769 11.1024 89.1593 11.052C89.0417 11.0016 88.9152 10.9771 88.7879 10.9801C88.6587 10.9784 88.5306 11.0034 88.4109 11.0536C88.2913 11.1039 88.1826 11.1783 88.0913 11.2726C88 11.3668 87.9279 11.479 87.8793 11.6025C87.8306 11.7259 87.8064 11.8582 87.8081 11.9915H87.8081Z" fill="white"/>
<path d="M23.2156 18.202C23.2247 17.5006 23.411 16.8129 23.7572 16.2029C24.1034 15.5929 24.5983 15.0803 25.1959 14.713C24.8163 14.1708 24.3155 13.7247 23.7333 13.4099C23.1511 13.0952 22.5036 12.9205 21.8421 12.8998C20.431 12.7517 19.063 13.7442 18.3439 13.7442C17.6109 13.7442 16.5038 12.9145 15.3116 12.9391C14.5405 12.964 13.789 13.1882 13.1303 13.5899C12.4716 13.9917 11.9282 14.5572 11.553 15.2313C9.92782 18.0451 11.14 22.1803 12.6968 24.4547C13.4757 25.5684 14.386 26.8124 15.5771 26.7683C16.7427 26.72 17.178 26.0251 18.5849 26.0251C19.9788 26.0251 20.3872 26.7683 21.6025 26.7403C22.8532 26.72 23.6412 25.6216 24.3928 24.4974C24.9524 23.7038 25.383 22.8267 25.6687 21.8987C24.9421 21.5914 24.322 21.0769 23.8858 20.4196C23.4496 19.7622 23.2165 18.9909 23.2156 18.202Z" fill="white"/>
<path d="M20.9234 11.4039C21.6054 10.5853 21.9413 9.53306 21.86 8.4707C20.8181 8.58013 19.8558 9.07806 19.1646 9.8653C18.8267 10.2499 18.5679 10.6973 18.403 11.182C18.2381 11.6666 18.1703 12.179 18.2035 12.6899C18.7246 12.6953 19.2402 12.5823 19.7113 12.3596C20.1824 12.1368 20.5969 11.8101 20.9234 11.4039Z" fill="white"/>
</svg>
