<svg width="65" height="65" viewBox="0 0 65 65" fill="none" xmlns="http://www.w3.org/2000/svg">
<rect x="0.5" y="0.5" width="64" height="64" rx="6" fill="#377DFF" fill-opacity="0.1"/>
<g clip-path="url(#clip0_3952_483)">
<g clip-path="url(#clip1_3952_483)">
<path d="M28.6609 55.6206C24.8635 55.6206 21.1514 54.4945 17.994 52.3848C14.8366 50.2751 12.3757 47.2765 10.9225 43.7681C9.46926 40.2598 9.08903 36.3993 9.82987 32.6749C10.5707 28.9505 12.3993 25.5294 15.0845 22.8442C17.7696 20.1591 21.1907 18.3305 24.9152 17.5896C28.6396 16.8488 32.5001 17.229 36.0084 18.6822C39.5167 20.1354 42.5153 22.5963 44.625 25.7537C46.7348 28.9111 47.8608 32.6233 47.8608 36.4206C47.8458 41.5082 45.8182 46.383 42.2207 49.9805C38.6233 53.5779 33.7484 55.6056 28.6609 55.6206ZM28.6609 19.1405C25.2432 19.1405 21.9023 20.154 19.0606 22.0528C16.2189 23.9515 14.004 26.6503 12.6961 29.8078C11.3883 32.9654 11.0461 36.4398 11.7128 39.7918C12.3796 43.1438 14.0253 46.2229 16.442 48.6395C18.8587 51.0562 21.9377 52.702 25.2897 53.3687C28.6417 54.0355 32.1162 53.6933 35.2737 52.3854C38.4312 51.0775 41.13 48.8627 43.0288 46.021C44.9275 43.1793 45.941 39.8383 45.941 36.4206C45.9503 34.1489 45.5097 31.8977 44.6446 29.7971C43.7794 27.6964 42.5069 25.7879 40.9004 24.1816C39.294 22.5752 37.3853 21.3029 35.2846 20.4379C33.1839 19.573 30.9327 19.1326 28.6609 19.1421V19.1405Z" fill="#377DFF"/>
<path d="M28.6586 48.9008C26.1904 48.9007 23.7777 48.1686 21.7256 46.7973C19.6734 45.4259 18.074 43.4769 17.1295 41.1965C16.185 38.9162 15.938 36.407 16.4195 33.9863C16.9011 31.5655 18.0896 29.3419 19.8349 27.5966C21.5802 25.8514 23.8038 24.6628 26.2245 24.1812C28.6453 23.6997 31.1545 23.9468 33.4348 24.8912C35.7152 25.8357 37.6642 27.4351 39.0356 29.4873C40.4069 31.5394 41.139 33.9521 41.1391 36.4203C41.1425 38.0602 40.822 39.6847 40.196 41.2004C39.57 42.7161 38.6508 44.0933 37.4912 45.2529C36.3316 46.4125 34.9544 47.3317 33.4387 47.9577C31.923 48.5837 30.2985 48.9042 28.6586 48.9008ZM28.6586 25.8604C25.8658 25.8853 23.1944 27.0059 21.2197 28.9809C19.245 30.956 18.1248 33.6275 18.1003 36.4203C18.1248 39.2134 19.2452 41.8852 21.2203 43.8603C23.1954 45.8354 25.8671 46.9558 28.6602 46.9802C31.4533 46.9558 34.1251 45.8354 36.1001 43.8603C38.0752 41.8852 39.1956 39.2134 39.2201 36.4203C39.1952 33.6272 38.0744 30.9557 36.099 28.9809C34.1236 27.0061 31.4517 25.8861 28.6586 25.862V25.8604Z" fill="#377DFF"/>
<path d="M28.6675 42.1799C27.9073 42.1939 27.152 42.0546 26.4469 41.7701C25.7417 41.4856 25.1011 41.0619 24.5634 40.5243C24.0257 39.9867 23.602 39.3461 23.3174 38.641C23.0328 37.9359 22.8933 37.1807 22.9072 36.4204C22.8932 35.6601 23.0326 34.9048 23.3171 34.1996C23.6017 33.4944 24.0254 32.8538 24.5632 32.3161C25.1009 31.7784 25.7415 31.3546 26.4467 31.0701C27.1519 30.7855 27.9072 30.6461 28.6675 30.6601C29.4278 30.6461 30.1832 30.7855 30.8884 31.0701C31.5936 31.3546 32.2342 31.7784 32.7719 32.3161C33.3096 32.8538 33.7334 33.4944 34.0179 34.1996C34.3024 34.9048 34.4418 35.6601 34.4278 36.4204C34.4417 37.1807 34.3022 37.9359 34.0176 38.641C33.7331 39.3461 33.3093 39.9867 32.7716 40.5243C32.2339 41.0619 31.5933 41.4856 30.8882 41.7701C30.183 42.0546 29.4278 42.1939 28.6675 42.1799ZM28.6675 32.58C27.9075 32.58 27.1645 32.8054 26.5325 33.2276C25.9006 33.6499 25.408 34.25 25.1172 34.9522C24.8263 35.6544 24.7502 36.4271 24.8985 37.1725C25.0468 37.918 25.4128 38.6027 25.9502 39.1402C26.4876 39.6776 27.1724 40.0436 27.9178 40.1919C28.6633 40.3401 29.4359 40.264 30.1381 39.9732C30.8403 39.6823 31.4405 39.1898 31.8627 38.5578C32.285 37.9259 32.5104 37.1829 32.5104 36.4228C32.5076 35.4046 32.1018 34.429 31.3817 33.7091C30.6616 32.9893 29.6857 32.5839 28.6675 32.5816V32.58Z" fill="#377DFF"/>
<path d="M28.6575 37.3803C28.3869 37.4087 28.115 37.3407 27.8897 37.1882C27.7987 37.1015 27.7262 36.9972 27.6766 36.8817C27.6271 36.7662 27.6016 36.6418 27.6016 36.5161C27.6016 36.3904 27.6271 36.266 27.6766 36.1504C27.7262 36.0349 27.7987 35.9306 27.8897 35.844L42.2925 21.4444C42.4707 21.2662 42.7125 21.166 42.9646 21.166C43.2167 21.166 43.4584 21.2662 43.6367 21.4444C43.8149 21.6227 43.9151 21.8644 43.9151 22.1165C43.9151 22.3686 43.8149 22.6104 43.6367 22.7886L29.2331 37.1882C29.2331 37.3803 28.8488 37.3803 28.6575 37.3803Z" fill="#377DFF"/>
<path d="M47.8597 22.9808H43.0562C42.928 22.9887 42.7995 22.9692 42.6794 22.9237C42.5593 22.8782 42.4502 22.8077 42.3594 22.7168C42.2686 22.626 42.1981 22.5169 42.1526 22.3968C42.1071 22.2767 42.0876 22.1483 42.0954 22.0201V17.2165C42.0954 17.0244 42.2876 16.6409 42.2876 16.4488L49.0118 9.73254C49.3746 9.576 49.7699 9.51005 50.1639 9.5404C50.3402 9.63045 50.4877 9.76828 50.5895 9.93816C50.6913 10.108 50.7433 10.3031 50.7395 10.5011V14.344H54.5824C54.7804 14.3402 54.9754 14.3922 55.1453 14.4939C55.3152 14.5957 55.453 14.7432 55.5431 14.9196C55.5734 15.3135 55.5075 15.7089 55.3509 16.0717L48.6307 22.7919C48.4354 22.7887 48.0511 22.9808 47.8597 22.9808ZM44.0169 21.0594H47.4731L52.2766 16.2558H49.7796C49.6514 16.2636 49.523 16.2442 49.4029 16.1987C49.2827 16.1531 49.1737 16.0826 49.0828 15.9918C48.992 15.901 48.9215 15.7919 48.876 15.6718C48.8305 15.5517 48.811 15.4233 48.8189 15.2951V12.8044L44.0153 17.608L44.0169 21.0594Z" fill="#377DFF"/>
</g>
</g>
<defs>
<clipPath id="clip0_3952_483">
<rect width="48" height="44.703" fill="white" transform="translate(8.5 10.5)"/>
</clipPath>
<clipPath id="clip1_3952_483">
<rect width="46.08" height="46.08" fill="white" transform="translate(9.46094 9.54004)"/>
</clipPath>
</defs>
</svg>
