<svg width="65" height="65" viewBox="0 0 65 65" fill="none" xmlns="http://www.w3.org/2000/svg">
<rect x="0.5" y="0.5" width="64" height="64" rx="6" fill="#1C1B57" fill-opacity="0.1"/>
<g clip-path="url(#clip0_3960_523)">
<g clip-path="url(#clip1_3960_523)">
<path d="M15.2558 26.7155V26.7107C15.2558 25.8254 15.7119 24.5662 16.7795 22.7737L16.7795 22.7737L16.7831 22.7677C17.6818 21.2289 18.7064 19.7673 19.8464 18.3976C20.0399 18.1718 20.281 17.8752 20.5426 17.5534C20.6415 17.4316 20.7434 17.3063 20.8468 17.1798C20.8621 17.161 20.8772 17.1426 20.8921 17.1246L21.8834 18.2722L21.8882 18.2778L21.8931 18.2832C23.1148 19.6475 24.1786 21.1453 25.0644 22.7483L25.0789 22.7745L25.0952 22.7996C25.8691 23.9858 26.3417 25.3427 26.4722 26.7527C26.4833 27.4802 26.3481 28.2027 26.0745 28.8771C25.7974 29.5601 25.3841 30.1795 24.8599 30.6976L24.8495 30.7079L24.8395 30.7185C24.3378 31.2509 23.7301 31.6723 23.0555 31.9555C22.381 32.2386 21.6546 32.3773 20.9231 32.3625L20.9105 32.3623L20.8979 32.3624C20.1577 32.3702 19.4236 32.2277 18.7401 31.9435C18.0566 31.6593 17.4379 31.2392 16.9215 30.7088L16.9154 30.7026L16.9093 30.6965C16.3817 30.1771 15.9635 29.5572 15.6795 28.8734C15.3955 28.1896 15.2514 27.4559 15.2558 26.7155ZM28.7144 44.6229L28.7156 44.547C28.7831 43.1803 29.1081 41.8384 29.6737 40.5918L29.6792 40.5795L29.6844 40.5671C30.3321 39.0052 31.1682 37.5282 32.1741 36.169L32.1758 36.1667C33.8604 33.8733 35.713 31.7082 37.7181 29.6891C37.9138 29.5273 38.105 29.3603 38.2916 29.1883L38.791 29.6693C40.8218 31.676 42.6964 33.8349 44.3984 36.1271L44.3983 36.1271L44.4042 36.1349C45.451 37.5103 46.3167 39.0146 46.9801 40.6107L46.9862 40.6254L46.9928 40.6398C47.5724 41.8943 47.8985 43.2509 47.9524 44.6316C47.9721 45.9015 47.7368 47.1624 47.2604 48.3397C46.7829 49.5197 46.073 50.5917 45.1728 51.4918C44.2727 52.392 43.2007 53.1019 42.0207 53.5794C40.8406 54.0569 39.5766 54.2922 38.3038 54.2713L38.2937 54.2711L38.2836 54.2712C37.0173 54.2817 35.7617 54.0388 34.5908 53.5566C33.4199 53.0745 32.3573 52.3629 31.4655 51.4638C30.5738 50.5647 29.871 49.4963 29.3985 48.3214C28.926 47.1466 28.6934 45.889 28.7144 44.6229ZM35.2678 15.0775V14.8504C35.2678 14.1246 35.5501 13.1924 36.2284 12.0348C36.8024 11.0551 37.6366 9.95364 38.7476 8.7329L39.2222 9.26617C40.0306 10.1978 40.7325 11.2168 41.3148 12.3042L41.3292 12.3311L41.3456 12.3569C41.8314 13.1212 42.1277 13.9903 42.2102 14.8919C42.2137 15.3246 42.1291 15.7536 41.9614 16.1527C41.7901 16.5603 41.5358 16.9277 41.2148 17.2317L41.2147 17.2317L41.2052 17.241C40.8834 17.5558 40.5025 17.804 40.0844 17.9712C39.6664 18.1384 39.2194 18.2213 38.7692 18.2152L38.7458 18.2149L38.7224 18.2159C38.2717 18.2356 37.8217 18.1631 37.4 18.0028C36.9783 17.8425 36.5937 17.5978 36.2699 17.2837C35.9461 16.9695 35.6898 16.5926 35.5168 16.1759C35.3715 15.8262 35.2875 15.4546 35.2678 15.0775Z" stroke="#1C1B57" stroke-width="1.63636"/>
</g>
</g>
<defs>
<clipPath id="clip0_3960_523">
<rect width="49.5529" height="46.1493" fill="white" transform="translate(7.5 9.5)"/>
</clipPath>
<clipPath id="clip1_3960_523">
<rect width="34.3303" height="47.5708" fill="white" transform="translate(14.4375 7.51855)"/>
</clipPath>
</defs>
</svg>
