<svg width="36" height="36" viewBox="0 0 36 36" fill="none" xmlns="http://www.w3.org/2000/svg">
<rect width="36" height="36" rx="4" fill="#1CBBCE"/>
<path fill-rule="evenodd" clip-rule="evenodd" d="M22.6163 12.2128C22.1823 11.8708 21.5543 11.9488 21.2133 12.3838L14.1583 21.3918L10.7793 17.1948C10.4313 16.7658 9.80333 16.6958 9.37333 17.0428C8.94233 17.3898 8.87533 18.0198 9.22033 18.4488L13.3893 23.6268C13.5803 23.8628 13.8663 23.9998 14.1693 23.9998H14.1763C14.4803 23.9978 14.7683 23.8568 14.9563 23.6158L22.7873 13.6158C23.1283 13.1818 23.0523 12.5528 22.6163 12.2128ZM27.6163 12.2128C27.1813 11.8708 26.5543 11.9488 26.2133 12.3838L19.1583 21.3918L18.5543 20.6428L17.2893 22.2598L18.3893 23.6268C18.5803 23.8628 18.8663 23.9998 19.1693 23.9998H19.1763C19.4803 23.9978 19.7683 23.8568 19.9563 23.6158L27.7873 13.6158C28.1283 13.1818 28.0523 12.5528 27.6163 12.2128ZM15.98 17.4444L14.713 19.0604L14.221 18.4494C13.875 18.0194 13.942 17.3894 14.373 17.0424C14.804 16.6964 15.433 16.7654 15.779 17.1954L15.98 17.4444Z" fill="white"/>
</svg>
