<svg width="65" height="65" viewBox="0 0 65 65" fill="none" xmlns="http://www.w3.org/2000/svg">
<rect x="0.5" y="0.5" width="64" height="64" rx="6" fill="#991094" fill-opacity="0.1"/>
<g clip-path="url(#clip0_3960_467)">
<path d="M17.1735 48.5464V49.9511C17.1735 50.6608 17.4554 51.3415 17.9573 51.8434C18.4592 52.3453 19.1398 52.6272 19.8496 52.6272H26.4246C27.1343 52.6272 27.815 52.3453 28.3169 51.8434C28.8188 51.3415 29.1007 50.6608 29.1007 49.9511V48.6136H35.7875V49.9511C35.7875 50.6608 36.0694 51.3415 36.5713 51.8434C37.0732 52.3453 37.7539 52.6272 38.4636 52.6272H45.038C45.7478 52.6272 46.4284 52.3453 46.9303 51.8434C47.4322 51.3415 47.7141 50.6608 47.7141 49.9511V48.5571C48.4914 48.4249 49.1969 48.0223 49.7061 47.4205C50.2154 46.8186 50.4956 46.0562 50.4973 45.2678V15.844C50.4962 14.958 50.144 14.1085 49.5177 13.4817C48.8915 12.8549 48.0423 12.5019 47.1563 12.5H17.8443C16.9577 12.5011 16.1078 12.8538 15.4809 13.4806C14.8541 14.1075 14.5014 14.9574 14.5003 15.844V18.5201C14.4976 18.6096 14.513 18.6987 14.5454 18.7822C14.5778 18.8657 14.6266 18.9418 14.689 19.006C14.7513 19.0703 14.8259 19.1214 14.9084 19.1563C14.9909 19.1911 15.0795 19.2091 15.169 19.2091C15.2586 19.2091 15.3472 19.1911 15.4297 19.1563C15.5121 19.1214 15.5868 19.0703 15.6491 19.006C15.7115 18.9418 15.7603 18.8657 15.7927 18.7822C15.8251 18.6987 15.8404 18.6096 15.8378 18.5201V15.844C15.8378 15.3118 16.0492 14.8015 16.4255 14.4252C16.8018 14.0489 17.3121 13.8375 17.8443 13.8375H47.1563C47.4198 13.8375 47.6807 13.8894 47.9242 13.9902C48.1676 14.091 48.3888 14.2388 48.5751 14.4252C48.7615 14.6115 48.9093 14.8327 49.0101 15.0761C49.1109 15.3196 49.1628 15.5805 49.1628 15.844V45.2678C49.1628 45.5313 49.1109 45.7923 49.0101 46.0357C48.9093 46.2791 48.7615 46.5003 48.5751 46.6867C48.3888 46.873 48.1676 47.0208 47.9242 47.1216C47.6807 47.2225 47.4198 47.2744 47.1563 47.2744H17.8443C17.3121 47.2744 16.8018 47.063 16.4255 46.6867C16.0492 46.3104 15.8378 45.8 15.8378 45.2678V21.8629C15.8326 21.689 15.7599 21.524 15.635 21.4028C15.5102 21.2816 15.343 21.2138 15.169 21.2138C14.995 21.2138 14.8279 21.2816 14.7031 21.4028C14.5782 21.524 14.5055 21.689 14.5003 21.8629V45.2678C14.5012 46.0381 14.7676 46.7845 15.2545 47.3814C15.7414 47.9782 16.4191 48.389 17.1735 48.5446V48.5464ZM46.3731 48.613V49.9505C46.3731 50.3052 46.2322 50.6454 45.9814 50.8962C45.7305 51.1471 45.3903 51.288 45.0356 51.288H38.4624C38.1077 51.288 37.7675 51.1471 37.5167 50.8962C37.2659 50.6454 37.125 50.3052 37.125 49.9505V48.6136L46.3731 48.613ZM27.7591 48.613V49.9505C27.7591 50.3052 27.6182 50.6454 27.3673 50.8962C27.1165 51.1471 26.7763 51.288 26.4216 51.288H19.8484C19.4937 51.288 19.1535 51.1471 18.9027 50.8962C18.6518 50.6454 18.5109 50.3052 18.5109 49.9505V48.6136L27.7591 48.613Z" fill="#991094"/>
<path d="M19.7393 35.2385C19.562 35.2385 19.3919 35.3089 19.2665 35.4342C19.141 35.5595 19.0705 35.7296 19.0703 35.9069V41.9258C19.0703 42.458 19.2817 42.9684 19.658 43.3447C20.0343 43.7209 20.5447 43.9323 21.0768 43.9323H43.8145C44.3466 43.9323 44.857 43.7209 45.2333 43.3447C45.6096 42.9684 45.821 42.458 45.821 41.9258V41.2574C46.0845 41.2574 46.3454 41.2055 46.5889 41.1047C46.8323 41.0038 47.0535 40.856 47.2398 40.6697C47.4261 40.4834 47.5739 40.2622 47.6748 40.0187C47.7756 39.7753 47.8275 39.5144 47.8275 39.2509V35.2385C47.8275 34.975 47.7756 34.714 47.6748 34.4706C47.5739 34.2272 47.4261 34.006 47.2398 33.8196C47.0535 33.6333 46.8323 33.4855 46.5889 33.3847C46.3454 33.2838 46.0845 33.2319 45.821 33.2319V27.8797C46.0845 27.8797 46.3454 27.8278 46.5889 27.7269C46.8323 27.6261 47.0535 27.4783 47.2398 27.292C47.4261 27.1056 47.5739 26.8844 47.6748 26.641C47.7756 26.3976 47.8275 26.1366 47.8275 25.8732V21.8631C47.8272 21.3311 47.6156 20.8211 47.2394 20.4451C46.8631 20.069 46.3529 19.8578 45.821 19.8578V19.1882C45.821 18.656 45.6096 18.1456 45.2333 17.7693C44.857 17.393 44.3466 17.1816 43.8145 17.1816H21.0768C20.5447 17.1816 20.0343 17.393 19.658 17.7693C19.2817 18.1456 19.0703 18.656 19.0703 19.1882V32.5635C19.0755 32.7374 19.1482 32.9025 19.2731 33.0236C19.3979 33.1448 19.5651 33.2126 19.739 33.2126C19.913 33.2126 20.0802 33.1448 20.205 33.0236C20.3299 32.9025 20.4026 32.7374 20.4078 32.5635V19.1882C20.4078 19.0107 20.4783 18.8405 20.6037 18.7151C20.7292 18.5896 20.8994 18.5191 21.0768 18.5191H43.8145C43.9919 18.5191 44.1621 18.5896 44.2876 18.7151C44.413 18.8405 44.4835 19.0107 44.4835 19.1882V19.8578C43.9514 19.8578 43.441 20.0692 43.0647 20.4455C42.6884 20.8218 42.477 21.3321 42.477 21.8643V25.8767C42.477 26.4089 42.6884 26.9192 43.0647 27.2955C43.441 27.6718 43.9514 27.8832 44.4835 27.8832V33.2355C43.9514 33.2355 43.441 33.4469 43.0647 33.8232C42.6884 34.1995 42.477 34.7099 42.477 35.242V39.2509C42.477 39.783 42.6884 40.2934 43.0647 40.6697C43.441 41.046 43.9514 41.2574 44.4835 41.2574V41.9264C44.4835 42.1039 44.413 42.274 44.2876 42.3995C44.1621 42.525 43.9919 42.5955 43.8145 42.5955H21.0768C20.8994 42.5955 20.7292 42.525 20.6037 42.3995C20.4783 42.274 20.4078 42.1039 20.4078 41.9264V35.9069C20.4076 35.7297 20.3372 35.5597 20.2118 35.4344C20.0865 35.3091 19.9166 35.2386 19.7393 35.2385ZM43.8145 25.8755V21.8631C43.8145 21.6857 43.885 21.5155 44.0104 21.39C44.1359 21.2646 44.3061 21.1941 44.4835 21.1941H45.821C45.9984 21.1941 46.1686 21.2646 46.2941 21.39C46.4195 21.5155 46.49 21.6857 46.49 21.8631V25.8755C46.49 26.053 46.4195 26.2231 46.2941 26.3486C46.1686 26.4741 45.9984 26.5446 45.821 26.5446H44.4835C44.3061 26.5446 44.1359 26.4741 44.0104 26.3486C43.885 26.2231 43.8145 26.053 43.8145 25.8755ZM43.8145 39.2509V35.2385C43.8145 35.061 43.885 34.8908 44.0104 34.7654C44.1359 34.6399 44.3061 34.5694 44.4835 34.5694H45.821C45.9984 34.5694 46.1686 34.6399 46.2941 34.7654C46.4195 34.8908 46.49 35.061 46.49 35.2385V39.2509C46.49 39.4283 46.4195 39.5985 46.2941 39.724C46.1686 39.8494 45.9984 39.9199 45.821 39.9199H44.4835C44.3061 39.9199 44.1359 39.8494 44.0104 39.724C43.885 39.5985 43.8145 39.4283 43.8145 39.2509Z" fill="#991094"/>
<path d="M25.7549 19.8564H22.4115C22.2341 19.8564 22.0639 19.9268 21.9384 20.0523C21.813 20.1778 21.7425 20.348 21.7425 20.5254V23.8694C21.7398 23.9589 21.7551 24.048 21.7875 24.1315C21.82 24.2149 21.8688 24.2911 21.9311 24.3553C21.9935 24.4196 22.0681 24.4706 22.1506 24.5055C22.2331 24.5404 22.3217 24.5584 22.4112 24.5584C22.5008 24.5584 22.5894 24.5404 22.6718 24.5055C22.7543 24.4706 22.8289 24.4196 22.8913 24.3553C22.9537 24.2911 23.0025 24.2149 23.0349 24.1315C23.0673 24.048 23.0826 23.9589 23.08 23.8694V21.1932H25.7561C25.8456 21.1959 25.9347 21.1806 26.0182 21.1482C26.1017 21.1158 26.1778 21.0669 26.242 21.0046C26.3063 20.9422 26.3573 20.8676 26.3922 20.7851C26.4271 20.7027 26.4451 20.614 26.4451 20.5245C26.4451 20.435 26.4271 20.3463 26.3922 20.2639C26.3573 20.1814 26.3063 20.1068 26.242 20.0444C26.1778 19.9821 26.1017 19.9332 26.0182 19.9008C25.9347 19.8684 25.8456 19.8531 25.7561 19.8558L25.7549 19.8564Z" fill="#991094"/>
<path d="M36.7286 38.4991H27.6999C27.301 38.4987 26.9186 38.34 26.6365 38.0579C26.3545 37.7759 26.1958 37.3934 26.1953 36.9946V29.9724C26.1958 29.5735 26.3545 29.191 26.6365 28.909C26.9186 28.6269 27.301 28.4682 27.6999 28.4678H36.7286C37.1275 28.4682 37.5099 28.6269 37.792 28.909C38.074 29.191 38.2327 29.5735 38.2332 29.9724V36.9946C38.2327 37.3934 38.074 37.7759 37.792 38.0579C37.5099 38.34 37.1275 38.4987 36.7286 38.4991ZM27.6999 29.471C27.567 29.4712 27.4396 29.5241 27.3456 29.618C27.2516 29.712 27.1987 29.8394 27.1986 29.9724V36.9946C27.1987 37.1275 27.2516 37.2549 27.3456 37.3489C27.4396 37.4429 27.567 37.4957 27.6999 37.4959H36.7286C36.8615 37.4957 36.9889 37.4429 37.0829 37.3489C37.1769 37.2549 37.2298 37.1275 37.2299 36.9946V29.9724C37.2298 29.8394 37.1769 29.712 37.0829 29.618C36.9889 29.5241 36.8615 29.4712 36.7286 29.471H27.6999Z" fill="#991094" stroke="#991094" stroke-width="1.09091"/>
<path d="M35.7266 29.4707C35.5937 29.4706 35.4663 29.4177 35.3723 29.3237C35.2783 29.2297 35.2255 29.1023 35.2253 28.9694V26.461C35.2253 25.6628 34.9082 24.8973 34.3439 24.333C33.7795 23.7686 33.014 23.4515 32.2158 23.4515C31.4177 23.4515 30.6522 23.7686 30.0878 24.333C29.5234 24.8973 29.2064 25.6628 29.2064 26.461V28.9688C29.2064 29.1018 29.1535 29.2294 29.0595 29.3235C28.9654 29.4176 28.8378 29.4704 28.7048 29.4704C28.5717 29.4704 28.4441 29.4176 28.35 29.3235C28.256 29.2294 28.2031 29.1018 28.2031 28.9688V26.461C28.2031 25.3967 28.6259 24.3761 29.3784 23.6235C30.131 22.871 31.1516 22.4482 32.2158 22.4482C33.2801 22.4482 34.3007 22.871 35.0533 23.6235C35.8058 24.3761 36.2286 25.3967 36.2286 26.461V28.9688C36.2286 29.0347 36.2156 29.1 36.1904 29.1609C36.1651 29.2218 36.1282 29.2771 36.0816 29.3237C36.0349 29.3703 35.9796 29.4073 35.9187 29.4325C35.8578 29.4577 35.7925 29.4707 35.7266 29.4707Z" fill="#991094" stroke="#991094" stroke-width="1.09091"/>
<path d="M32.2113 33.8185C31.9469 33.8183 31.6884 33.7397 31.4687 33.5926C31.2489 33.4455 31.0777 33.2367 30.9766 32.9923C30.8755 32.748 30.8491 32.4791 30.9008 32.2198C30.9524 31.9605 31.0798 31.7223 31.2667 31.5353C31.4537 31.3483 31.6919 31.221 31.9513 31.1693C32.2106 31.1177 32.4794 31.1441 32.7238 31.2451C32.9681 31.3462 33.177 31.5175 33.324 31.7372C33.4711 31.957 33.5497 32.2154 33.5499 32.4798C33.5499 32.8349 33.4089 33.1754 33.1579 33.4264C32.9068 33.6775 32.5663 33.8185 32.2113 33.8185ZM32.2113 32.1468C32.1452 32.1468 32.0806 32.1664 32.0256 32.2031C31.9706 32.2399 31.9278 32.2921 31.9025 32.3531C31.8772 32.4142 31.8706 32.4814 31.8835 32.5462C31.8964 32.6111 31.9282 32.6706 31.975 32.7174C32.0217 32.7641 32.0812 32.7959 32.1461 32.8088C32.2109 32.8217 32.2781 32.8151 32.3392 32.7898C32.4003 32.7645 32.4525 32.7217 32.4892 32.6667C32.5259 32.6117 32.5455 32.5471 32.5455 32.481C32.5456 32.4371 32.537 32.3935 32.5202 32.3529C32.5035 32.3122 32.4789 32.2753 32.4479 32.2441C32.4168 32.213 32.38 32.1882 32.3394 32.1713C32.2988 32.1544 32.2553 32.1457 32.2113 32.1456V32.1468Z" fill="#991094"/>
<path d="M32.2123 35.8238C32.0794 35.8236 31.9519 35.7708 31.8579 35.6768C31.764 35.5828 31.7111 35.4554 31.7109 35.3225V33.4831C31.7109 33.35 31.7638 33.2224 31.8579 33.1284C31.9519 33.0343 32.0795 32.9814 32.2126 32.9814C32.3456 32.9814 32.4732 33.0343 32.5673 33.1284C32.6613 33.2224 32.7142 33.35 32.7142 33.4831V35.3225C32.714 35.4555 32.6611 35.583 32.567 35.677C32.4729 35.771 32.3453 35.8238 32.2123 35.8238Z" fill="#991094"/>
</g>
<defs>
<clipPath id="clip0_3960_467">
<rect width="36" height="40.126" fill="white" transform="translate(14.5 12.5)"/>
</clipPath>
</defs>
</svg>
