<svg width="37" height="41" viewBox="0 0 37 41" fill="none" xmlns="http://www.w3.org/2000/svg">
<g id="vault-lock-home (1) 1" clip-path="url(#clip0_3952_468)">
<path id="Vector" d="M3.17346 36.5464V37.9511C3.17346 38.6608 3.45541 39.3415 3.95728 39.8434C4.45916 40.3453 5.13984 40.6272 5.8496 40.6272H12.4246C13.1343 40.6272 13.815 40.3453 14.3169 39.8434C14.8188 39.3415 15.1007 38.6608 15.1007 37.9511V36.6136H21.7875V37.9511C21.7875 38.6608 22.0694 39.3415 22.5713 39.8434C23.0732 40.3453 23.7539 40.6272 24.4636 40.6272H31.038C31.7478 40.6272 32.4284 40.3453 32.9303 39.8434C33.4322 39.3415 33.7141 38.6608 33.7141 37.9511V36.5571C34.4914 36.4249 35.1969 36.0223 35.7061 35.4205C36.2154 34.8186 36.4956 34.0562 36.4973 33.2678V3.84399C36.4962 2.95796 36.144 2.10849 35.5177 1.4817C34.8915 0.8549 34.0423 0.501888 33.1563 0.5L3.84428 0.5C2.95774 0.501102 2.10782 0.853767 1.48094 1.48065C0.854064 2.10753 0.501399 2.95744 0.500297 3.84399V6.52013C0.497628 6.60962 0.512951 6.69875 0.545357 6.78221C0.577763 6.86568 0.626594 6.94179 0.688956 7.00604C0.751318 7.07029 0.825942 7.12137 0.908406 7.15625C0.99087 7.19113 1.0795 7.20911 1.16903 7.20911C1.25857 7.20911 1.3472 7.19113 1.42966 7.15625C1.51213 7.12137 1.58675 7.07029 1.64911 7.00604C1.71147 6.94179 1.76031 6.86568 1.79271 6.78221C1.82512 6.69875 1.84044 6.60962 1.83777 6.52013V3.84399C1.83777 3.31183 2.04917 2.80146 2.42546 2.42517C2.80176 2.04887 3.31212 1.83748 3.84428 1.83748H33.1563C33.4198 1.83748 33.6807 1.88938 33.9242 1.99021C34.1676 2.09105 34.3888 2.23885 34.5751 2.42517C34.7615 2.61149 34.9093 2.83269 35.0101 3.07613C35.1109 3.31957 35.1628 3.58049 35.1628 3.84399V33.2678C35.1628 33.5313 35.1109 33.7923 35.0101 34.0357C34.9093 34.2791 34.7615 34.5003 34.5751 34.6867C34.3888 34.873 34.1676 35.0208 33.9242 35.1216C33.6807 35.2225 33.4198 35.2744 33.1563 35.2744H3.84428C3.31212 35.2744 2.80176 35.063 2.42546 34.6867C2.04917 34.3104 1.83777 33.8 1.83777 33.2678V9.86292C1.83258 9.68901 1.75986 9.52397 1.63501 9.40279C1.51016 9.28161 1.34302 9.21383 1.16903 9.21383C0.995049 9.21383 0.827907 9.28161 0.70306 9.40279C0.578214 9.52397 0.505484 9.68901 0.500297 9.86292V33.2678C0.501234 34.0381 0.767581 34.7845 1.25448 35.3814C1.74138 35.9782 2.41909 36.389 3.17346 36.5446V36.5464ZM32.3731 36.613V37.9505C32.3731 38.3052 32.2322 38.6454 31.9814 38.8962C31.7305 39.1471 31.3903 39.288 31.0356 39.288H24.4624C24.1077 39.288 23.7675 39.1471 23.5167 38.8962C23.2659 38.6454 23.125 38.3052 23.125 37.9505V36.6136L32.3731 36.613ZM13.7591 36.613V37.9505C13.7591 38.3052 13.6182 38.6454 13.3673 38.8962C13.1165 39.1471 12.7763 39.288 12.4216 39.288H5.84841C5.49369 39.288 5.1535 39.1471 4.90267 38.8962C4.65185 38.6454 4.51094 38.3052 4.51094 37.9505V36.6136L13.7591 36.613Z" fill="#991094"/>
<path id="Vector_2" d="M5.73935 23.2385C5.56201 23.2385 5.39193 23.3089 5.26648 23.4342C5.14103 23.5595 5.07047 23.7296 5.07031 23.9069V29.9258C5.07031 30.458 5.28171 30.9684 5.65801 31.3447C6.0343 31.7209 6.54466 31.9323 7.07682 31.9323H29.8145C30.3466 31.9323 30.857 31.7209 31.2333 31.3447C31.6096 30.9684 31.821 30.458 31.821 29.9258V29.2574C32.0845 29.2574 32.3454 29.2055 32.5889 29.1047C32.8323 29.0038 33.0535 28.856 33.2398 28.6697C33.4261 28.4834 33.5739 28.2622 33.6748 28.0187C33.7756 27.7753 33.8275 27.5144 33.8275 27.2509V23.2385C33.8275 22.975 33.7756 22.714 33.6748 22.4706C33.5739 22.2272 33.4261 22.006 33.2398 21.8196C33.0535 21.6333 32.8323 21.4855 32.5889 21.3847C32.3454 21.2838 32.0845 21.2319 31.821 21.2319V15.8797C32.0845 15.8797 32.3454 15.8278 32.5889 15.7269C32.8323 15.6261 33.0535 15.4783 33.2398 15.292C33.4261 15.1056 33.5739 14.8844 33.6748 14.641C33.7756 14.3976 33.8275 14.1366 33.8275 13.8732V9.8631C33.8272 9.33115 33.6156 8.82109 33.2394 8.44505C32.8631 8.06902 32.3529 7.85778 31.821 7.85778V7.18815C31.821 6.65599 31.6096 6.14563 31.2333 5.76933C30.857 5.39304 30.3466 5.18164 29.8145 5.18164H7.07682C6.54466 5.18164 6.0343 5.39304 5.65801 5.76933C5.28171 6.14563 5.07031 6.65599 5.07031 7.18815V20.5635C5.0755 20.7374 5.14823 20.9025 5.27308 21.0236C5.39792 21.1448 5.56506 21.2126 5.73905 21.2126C5.91304 21.2126 6.08018 21.1448 6.20502 21.0236C6.32987 20.9025 6.4026 20.7374 6.40779 20.5635V7.18815C6.40779 7.01071 6.47827 6.84054 6.60374 6.71507C6.72921 6.5896 6.89938 6.51912 7.07682 6.51912H29.8145C29.9919 6.51912 30.1621 6.5896 30.2876 6.71507C30.413 6.84054 30.4835 7.01071 30.4835 7.18815V7.85778C29.9514 7.85778 29.441 8.06918 29.0647 8.44547C28.6884 8.82177 28.477 9.33213 28.477 9.86429V13.8767C28.477 14.4089 28.6884 14.9192 29.0647 15.2955C29.441 15.6718 29.9514 15.8832 30.4835 15.8832V21.2355C29.9514 21.2355 29.441 21.4469 29.0647 21.8232C28.6884 22.1995 28.477 22.7099 28.477 23.242V27.2509C28.477 27.783 28.6884 28.2934 29.0647 28.6697C29.441 29.046 29.9514 29.2574 30.4835 29.2574V29.9264C30.4835 30.1039 30.413 30.274 30.2876 30.3995C30.1621 30.525 29.9919 30.5955 29.8145 30.5955H7.07682C6.89938 30.5955 6.72921 30.525 6.60374 30.3995C6.47827 30.274 6.40779 30.1039 6.40779 29.9264V23.9069C6.40763 23.7297 6.33715 23.5597 6.21183 23.4344C6.08651 23.3091 5.91658 23.2386 5.73935 23.2385ZM29.8145 13.8755V9.8631C29.8145 9.68566 29.885 9.51549 30.0104 9.39002C30.1359 9.26455 30.3061 9.19407 30.4835 9.19407H31.821C31.9984 9.19407 32.1686 9.26455 32.2941 9.39002C32.4195 9.51549 32.49 9.68566 32.49 9.8631V13.8755C32.49 14.053 32.4195 14.2231 32.2941 14.3486C32.1686 14.4741 31.9984 14.5446 31.821 14.5446H30.4835C30.3061 14.5446 30.1359 14.4741 30.0104 14.3486C29.885 14.2231 29.8145 14.053 29.8145 13.8755ZM29.8145 27.2509V23.2385C29.8145 23.061 29.885 22.8908 30.0104 22.7654C30.1359 22.6399 30.3061 22.5694 30.4835 22.5694H31.821C31.9984 22.5694 32.1686 22.6399 32.2941 22.7654C32.4195 22.8908 32.49 23.061 32.49 23.2385V27.2509C32.49 27.4283 32.4195 27.5985 32.2941 27.724C32.1686 27.8494 31.9984 27.9199 31.821 27.9199H30.4835C30.3061 27.9199 30.1359 27.8494 30.0104 27.724C29.885 27.5985 29.8145 27.4283 29.8145 27.2509Z" fill="#991094"/>
<path id="Vector_3" d="M11.7549 7.85636H8.41152C8.23408 7.85636 8.06391 7.92685 7.93844 8.05232C7.81297 8.17779 7.74248 8.34796 7.74248 8.5254V11.8694C7.73982 11.9589 7.75514 12.048 7.78754 12.1315C7.81995 12.2149 7.86878 12.2911 7.93114 12.3553C7.99351 12.4196 8.06813 12.4706 8.15059 12.5055C8.23306 12.5404 8.32168 12.5584 8.41122 12.5584C8.50076 12.5584 8.58939 12.5404 8.67185 12.5055C8.75431 12.4706 8.82894 12.4196 8.8913 12.3553C8.95366 12.2911 9.00249 12.2149 9.0349 12.1315C9.06731 12.048 9.08263 11.9589 9.07996 11.8694V9.19324H11.7561C11.8456 9.19591 11.9347 9.18059 12.0182 9.14818C12.1017 9.11578 12.1778 9.06694 12.242 9.00458C12.3063 8.94222 12.3573 8.8676 12.3922 8.78513C12.4271 8.70267 12.4451 8.61404 12.4451 8.5245C12.4451 8.43497 12.4271 8.34634 12.3922 8.26388C12.3573 8.18141 12.3063 8.10679 12.242 8.04443C12.1778 7.98206 12.1017 7.93323 12.0182 7.90083C11.9347 7.86842 11.8456 7.8531 11.7561 7.85577L11.7549 7.85636Z" fill="#991094"/>
<g id="Group">
<path id="Vector_4" d="M22.7286 26.4991H13.6999C13.301 26.4987 12.9186 26.34 12.6365 26.0579C12.3545 25.7759 12.1958 25.3934 12.1953 24.9946V17.9724C12.1958 17.5735 12.3545 17.191 12.6365 16.909C12.9186 16.6269 13.301 16.4682 13.6999 16.4678H22.7286C23.1275 16.4682 23.5099 16.6269 23.792 16.909C24.074 17.191 24.2327 17.5735 24.2332 17.9724V24.9946C24.2327 25.3934 24.074 25.7759 23.792 26.0579C23.5099 26.34 23.1275 26.4987 22.7286 26.4991ZM13.6999 17.471C13.567 17.4712 13.4396 17.5241 13.3456 17.618C13.2516 17.712 13.1987 17.8394 13.1986 17.9724V24.9946C13.1987 25.1275 13.2516 25.2549 13.3456 25.3489C13.4396 25.4429 13.567 25.4957 13.6999 25.4959H22.7286C22.8615 25.4957 22.9889 25.4429 23.0829 25.3489C23.1769 25.2549 23.2298 25.1275 23.2299 24.9946V17.9724C23.2298 17.8394 23.1769 17.712 23.0829 17.618C22.9889 17.5241 22.8615 17.4712 22.7286 17.471H13.6999Z" fill="#991094" stroke="#991094" stroke-width="1.09091"/>
<path id="Vector_5" d="M21.7266 17.4707C21.5937 17.4706 21.4663 17.4177 21.3723 17.3237C21.2783 17.2297 21.2255 17.1023 21.2253 16.9694V14.461C21.2253 13.6628 20.9082 12.8973 20.3439 12.333C19.7795 11.7686 19.014 11.4515 18.2158 11.4515C17.4177 11.4515 16.6522 11.7686 16.0878 12.333C15.5234 12.8973 15.2064 13.6628 15.2064 14.461V16.9688C15.2064 17.1018 15.1535 17.2294 15.0595 17.3235C14.9654 17.4176 14.8378 17.4704 14.7048 17.4704C14.5717 17.4704 14.4441 17.4176 14.35 17.3235C14.256 17.2294 14.2031 17.1018 14.2031 16.9688V14.461C14.2031 13.3967 14.6259 12.3761 15.3784 11.6235C16.131 10.871 17.1516 10.4482 18.2158 10.4482C19.2801 10.4482 20.3007 10.871 21.0533 11.6235C21.8058 12.3761 22.2286 13.3967 22.2286 14.461V16.9688C22.2286 17.0347 22.2156 17.1 22.1904 17.1609C22.1651 17.2218 22.1282 17.2771 22.0816 17.3237C22.0349 17.3703 21.9796 17.4073 21.9187 17.4325C21.8578 17.4577 21.7925 17.4707 21.7266 17.4707Z" fill="#991094" stroke="#991094" stroke-width="1.09091"/>
<path id="Vector_6" d="M18.2113 21.8185C17.9469 21.8183 17.6884 21.7397 17.4687 21.5926C17.2489 21.4455 17.0777 21.2367 16.9766 20.9923C16.8755 20.748 16.8491 20.4791 16.9008 20.2198C16.9524 19.9605 17.0798 19.7223 17.2667 19.5353C17.4537 19.3483 17.6919 19.221 17.9513 19.1693C18.2106 19.1177 18.4794 19.1441 18.7238 19.2451C18.9681 19.3462 19.177 19.5175 19.324 19.7372C19.4711 19.957 19.5497 20.2154 19.5499 20.4798C19.5499 20.8349 19.4089 21.1754 19.1579 21.4264C18.9068 21.6775 18.5663 21.8185 18.2113 21.8185ZM18.2113 20.1468C18.1452 20.1468 18.0806 20.1664 18.0256 20.2031C17.9706 20.2399 17.9278 20.2921 17.9025 20.3531C17.8772 20.4142 17.8706 20.4814 17.8835 20.5462C17.8964 20.6111 17.9282 20.6706 17.975 20.7174C18.0217 20.7641 18.0812 20.7959 18.1461 20.8088C18.2109 20.8217 18.2781 20.8151 18.3392 20.7898C18.4003 20.7645 18.4525 20.7217 18.4892 20.6667C18.5259 20.6117 18.5455 20.5471 18.5455 20.481C18.5456 20.4371 18.537 20.3935 18.5202 20.3529C18.5035 20.3122 18.4789 20.2753 18.4479 20.2441C18.4168 20.213 18.38 20.1882 18.3394 20.1713C18.2988 20.1544 18.2553 20.1457 18.2113 20.1456V20.1468Z" fill="#991094"/>
<path id="Vector_7" d="M18.2123 23.8238C18.0794 23.8236 17.9519 23.7708 17.8579 23.6768C17.764 23.5828 17.7111 23.4554 17.7109 23.3225V21.4831C17.7109 21.35 17.7638 21.2224 17.8579 21.1284C17.9519 21.0343 18.0795 20.9814 18.2126 20.9814C18.3456 20.9814 18.4732 21.0343 18.5673 21.1284C18.6613 21.2224 18.7142 21.35 18.7142 21.4831V23.3225C18.714 23.4555 18.6611 23.583 18.567 23.677C18.4729 23.771 18.3453 23.8238 18.2123 23.8238Z" fill="#991094"/>
</g>
</g>
<defs>
<clipPath id="clip0_3952_468">
<rect width="36" height="40.126" fill="white" transform="translate(0.5 0.5)"/>
</clipPath>
</defs>
</svg>
